%FSLAX25Y25*%
%MOIN*%
G70*
G01*
G75*
%ADD10C,0.01000*%
%ADD11R,0.02800X0.01500*%
%ADD12R,0.03150X0.03150*%
%ADD13R,0.03150X0.03150*%
%ADD14R,0.02300X0.03000*%
%ADD15R,0.05906X0.02362*%
%ADD16R,0.10000X0.03000*%
%ADD17C,0.02000*%
%ADD18C,0.01500*%
%ADD19C,0.03150*%
%ADD20C,0.03150*%
%ADD21C,0.02000*%
%ADD22C,0.01600*%
%ADD23C,0.05000*%
%ADD24C,0.00800*%
%ADD25C,0.01200*%
%ADD26C,0.00787*%
%ADD27C,0.00984*%
%ADD28R,0.17000X0.22638*%
D11*
X122200Y458200D02*
D03*
Y455700D02*
D03*
Y453200D02*
D03*
Y443200D02*
D03*
X125900Y453200D02*
D03*
Y455700D02*
D03*
Y458200D02*
D03*
Y460700D02*
D03*
X122200Y440700D02*
D03*
Y445700D02*
D03*
Y448200D02*
D03*
Y450700D02*
D03*
Y460700D02*
D03*
Y463200D02*
D03*
X125900Y448200D02*
D03*
Y450700D02*
D03*
Y443200D02*
D03*
Y445700D02*
D03*
D12*
X122500Y420500D02*
D03*
X126000Y489000D02*
D03*
D13*
X122500Y426405D02*
D03*
X126000Y483095D02*
D03*
D14*
X122500Y416000D02*
D03*
Y411000D02*
D03*
X126000Y474000D02*
D03*
Y479000D02*
D03*
X135500D02*
D03*
Y474000D02*
D03*
X169500Y469500D02*
D03*
Y474500D02*
D03*
X135500Y426500D02*
D03*
Y431500D02*
D03*
X169500Y436500D02*
D03*
Y431500D02*
D03*
D15*
X163200Y459200D02*
D03*
X141940D02*
D03*
X163200Y464200D02*
D03*
Y469200D02*
D03*
Y474200D02*
D03*
Y479200D02*
D03*
Y484200D02*
D03*
Y489200D02*
D03*
X141940Y464200D02*
D03*
Y469200D02*
D03*
Y474200D02*
D03*
Y479200D02*
D03*
Y484200D02*
D03*
Y489200D02*
D03*
X163260Y416500D02*
D03*
X142000D02*
D03*
X163260Y421500D02*
D03*
Y426500D02*
D03*
Y431500D02*
D03*
Y436500D02*
D03*
Y441500D02*
D03*
Y446500D02*
D03*
X142000Y421500D02*
D03*
Y426500D02*
D03*
Y431500D02*
D03*
Y436500D02*
D03*
Y441500D02*
D03*
Y446500D02*
D03*
D16*
X188200Y444700D02*
D03*
Y449700D02*
D03*
Y459700D02*
D03*
Y454700D02*
D03*
M02*
