INCH,LZ
M48
T1F00S00C0.00600
T2F00S00C0.00800
T3F00S00C0.01968
T4F00S00C0.03000
%
T01
X0114Y04457
X01165Y04482
X01277
Y04507
X01278Y04532
Y04557
X01277Y04582
X01278Y04607
X01222Y0466
X01165Y04615
X01277Y04457
Y04432
T02
X01225Y0426405
X01355Y04265
X014356Y04214
Y04164
Y04415
Y04465
X0146Y04525
X01436Y04592
Y04642
X0152Y04625
X0153Y04435
X01175Y04415
X0118Y04545
X01616Y04592
Y04642
X0175Y0464
X0174Y045
X0171Y0446
X016166Y04465
Y04415
X01695Y04365
X01775
X0183Y0434
X01565Y0433
X0157Y0423
X016166Y04214
Y04164
X0188Y04685
X0183Y0475
X01695Y04695
X0157Y0473
Y0483
X01616Y04842
Y04892
X01436
Y04842
X01355Y0479
X0126Y0489
T03
X0184Y04125
Y04175
X0189
Y04125
Y0489
Y0494
X0184
Y0489
T04
X01075Y0411
X0108Y0494
M30
